<?xml version="1.0" standalone="no"?>
 <!DOCTYPE svg PUBLIC "-//W3C//DTD SVG 1.1//EN" 
 "http://www.w3.org/Graphics/SVG/1.1/DTD/svg11.dtd"> 
<svg xmlns="http://www.w3.org/2000/svg" version="1.1" 
    width="6.9977cm" height="9.99998cm" viewBox="0 0 27550 39370 ">
<title>SVG Picture created as large_7segment-brd.svg date 2018/06/10 21:15:33 </title>
  <desc>Picture generated by PCBNEW </desc>
<g style="fill:#000000; fill-opacity:1;stroke:#000000; stroke-opacity:1;
stroke-linecap:round; stroke-linejoin:round; "
 transform="translate(0 0) scale(1 1)">
</g>
<g style="fill:#000000; fill-opacity:0.0; 
stroke:#000000; stroke-width:-0.000393701; stroke-opacity:1; 
stroke-linecap:round; stroke-linejoin:round;">
</g>
<g style="fill:#000000; fill-opacity:0.0; 
stroke:#000000; stroke-width:0; stroke-opacity:1; 
stroke-linecap:round; stroke-linejoin:round;">
</g>
<g style="fill:#000000; fill-opacity:1.0; 
stroke:#000000; stroke-width:0; stroke-opacity:1; 
stroke-linecap:round; stroke-linejoin:round;">
<polyline style="fill-rule:evenodd;"
points="14515,9677
14515,8968
15224,8968
15224,9677
14515,9677
" /> 
<circle cx="15870.1" cy="9322.83" r="354.331" /> 
</g>
<g style="fill:#000000; fill-opacity:1.0; 
stroke:#000000; stroke-width:39.3701; stroke-opacity:1; 
stroke-linecap:round; stroke-linejoin:round;">
</g>
<g style="fill:#000000; fill-opacity:1.0; 
stroke:#000000; stroke-width:0; stroke-opacity:1; 
stroke-linecap:round; stroke-linejoin:round;">
<polyline style="fill-rule:evenodd;"
points="16562,12173
16562,11464
17271,11464
17271,12173
16562,12173
" /> 
<circle cx="17917.3" cy="11818.9" r="354.331" /> 
</g>
<g style="fill:#000000; fill-opacity:1.0; 
stroke:#000000; stroke-width:39.3701; stroke-opacity:1; 
stroke-linecap:round; stroke-linejoin:round;">
</g>
<g style="fill:#000000; fill-opacity:1.0; 
stroke:#000000; stroke-width:0; stroke-opacity:1; 
stroke-linecap:round; stroke-linejoin:round;">
<polyline style="fill-rule:evenodd;"
points="13838,27921
13838,27212
14547,27212
14547,27921
13838,27921
" /> 
<circle cx="15192.9" cy="27566.9" r="354.331" /> 
</g>
<g style="fill:#000000; fill-opacity:1.0; 
stroke:#000000; stroke-width:39.3701; stroke-opacity:1; 
stroke-linecap:round; stroke-linejoin:round;">
</g>
<g style="fill:#000000; fill-opacity:1.0; 
stroke:#000000; stroke-width:0; stroke-opacity:1; 
stroke-linecap:round; stroke-linejoin:round;">
<polyline style="fill-rule:evenodd;"
points="11377,30007
11377,29299
12086,29299
12086,30007
11377,30007
" /> 
<circle cx="12732.3" cy="29653.5" r="354.331" /> 
</g>
<g style="fill:#000000; fill-opacity:1.0; 
stroke:#000000; stroke-width:39.3701; stroke-opacity:1; 
stroke-linecap:round; stroke-linejoin:round;">
</g>
<g style="fill:#000000; fill-opacity:1.0; 
stroke:#000000; stroke-width:0; stroke-opacity:1; 
stroke-linecap:round; stroke-linejoin:round;">
<polyline style="fill-rule:evenodd;"
points="9330,27511
9330,26803
10039,26803
10039,27511
9330,27511
" /> 
<circle cx="10685" cy="27157.5" r="354.331" /> 
</g>
<g style="fill:#000000; fill-opacity:1.0; 
stroke:#000000; stroke-width:39.3701; stroke-opacity:1; 
stroke-linecap:round; stroke-linejoin:round;">
</g>
<g style="fill:#000000; fill-opacity:1.0; 
stroke:#000000; stroke-width:0; stroke-opacity:1; 
stroke-linecap:round; stroke-linejoin:round;">
<polyline style="fill-rule:evenodd;"
points="12051,11763
12051,11055
12759,11055
12759,11763
12051,11763
" /> 
<circle cx="13405.5" cy="11409.4" r="354.331" /> 
</g>
<g style="fill:#000000; fill-opacity:1.0; 
stroke:#000000; stroke-width:39.3701; stroke-opacity:1; 
stroke-linecap:round; stroke-linejoin:round;">
</g>
<g style="fill:#000000; fill-opacity:1.0; 
stroke:#000000; stroke-width:0; stroke-opacity:1; 
stroke-linecap:round; stroke-linejoin:round;">
<polyline style="fill-rule:evenodd;"
points="14098,14259
14098,13551
14807,13551
14807,14259
14098,14259
" /> 
<circle cx="15452.8" cy="13905.5" r="354.331" /> 
</g>
<g style="fill:#000000; fill-opacity:1.0; 
stroke:#000000; stroke-width:39.3701; stroke-opacity:1; 
stroke-linecap:round; stroke-linejoin:round;">
</g>
<g style="fill:#000000; fill-opacity:1.0; 
stroke:#000000; stroke-width:0; stroke-opacity:1; 
stroke-linecap:round; stroke-linejoin:round;">
<polyline style="fill-rule:evenodd;"
points="11791,25425
11791,24716
12500,24716
12500,25425
11791,25425
" /> 
<circle cx="13145.7" cy="25070.9" r="354.331" /> 
</g>
<g style="fill:#000000; fill-opacity:1.0; 
stroke:#000000; stroke-width:39.3701; stroke-opacity:1; 
stroke-linecap:round; stroke-linejoin:round;">
</g>
<g style="fill:#000000; fill-opacity:1.0; 
stroke:#000000; stroke-width:0; stroke-opacity:1; 
stroke-linecap:round; stroke-linejoin:round;">
<polyline style="fill-rule:evenodd;"
points="24677,37909
24077,37909
24077,35940
24677,35940
24677,37909
" /> 
<polyline style="fill-rule:evenodd;"
points="23677,37909
23077,37909
23077,35940
23677,35940
23677,37909
" /> 
<polyline style="fill-rule:evenodd;"
points="22677,37909
22077,37909
22077,35940
22677,35940
22677,37909
" /> 
<polyline style="fill-rule:evenodd;"
points="21677,37909
21077,37909
21077,35940
21677,35940
21677,37909
" /> 
<polyline style="fill-rule:evenodd;"
points="20677,37909
20077,37909
20077,35940
20677,35940
20677,37909
" /> 
<polyline style="fill-rule:evenodd;"
points="19677,37909
19077,37909
19077,35940
19677,35940
19677,37909
" /> 
<polyline style="fill-rule:evenodd;"
points="18677,37909
18077,37909
18077,35940
18677,35940
18677,37909
" /> 
<polyline style="fill-rule:evenodd;"
points="17677,37909
17077,37909
17077,35940
17677,35940
17677,37909
" /> 
<polyline style="fill-rule:evenodd;"
points="23437,35606
22925,35606
22925,35015
23437,35015
23437,35606
" /> 
<polyline style="fill-rule:evenodd;"
points="23437,34543
22925,34543
22925,33952
23437,33952
23437,34543
" /> 
<polyline style="fill-rule:evenodd;"
points="22633,35606
22122,35606
22122,35015
22633,35015
22633,35606
" /> 
<polyline style="fill-rule:evenodd;"
points="22633,34543
22122,34543
22122,33952
22633,33952
22633,34543
" /> 
<polyline style="fill-rule:evenodd;"
points="21633,35606
21122,35606
21122,35015
21633,35015
21633,35606
" /> 
<polyline style="fill-rule:evenodd;"
points="21633,34543
21122,34543
21122,33952
21633,33952
21633,34543
" /> 
<polyline style="fill-rule:evenodd;"
points="20633,35606
20122,35606
20122,35015
20633,35015
20633,35606
" /> 
<polyline style="fill-rule:evenodd;"
points="20633,34543
20122,34543
20122,33952
20633,33952
20633,34543
" /> 
<polyline style="fill-rule:evenodd;"
points="19633,35606
19122,35606
19122,35015
19633,35015
19633,35606
" /> 
<polyline style="fill-rule:evenodd;"
points="19633,34543
19122,34543
19122,33952
19633,33952
19633,34543
" /> 
<polyline style="fill-rule:evenodd;"
points="18637,35606
18125,35606
18125,35015
18637,35015
18637,35606
" /> 
<polyline style="fill-rule:evenodd;"
points="18637,34543
18125,34543
18125,33952
18637,33952
18637,34543
" /> 
<polyline style="fill-rule:evenodd;"
points="17633,27732
17122,27732
17122,27141
17633,27141
17633,27732
" /> 
<polyline style="fill-rule:evenodd;"
points="17633,26669
17122,26669
17122,26078
17633,26078
17633,26669
" /> 
<polyline style="fill-rule:evenodd;"
points="16633,27732
16122,27732
16122,27141
16633,27141
16633,27732
" /> 
<polyline style="fill-rule:evenodd;"
points="16633,26669
16122,26669
16122,26078
16633,26078
16633,26669
" /> 
<polyline style="fill-rule:evenodd;"
points="16279,29488
16279,28818
17066,28818
17066,29488
16279,29488
" /> 
<polyline style="fill-rule:evenodd;"
points="17854,29488
17854,28818
18641,28818
18641,29488
17854,29488
" /> 
<polyline style="fill-rule:evenodd;"
points="16279,30771
16279,30102
17066,30102
17066,30771
16279,30771
" /> 
<polyline style="fill-rule:evenodd;"
points="17854,30771
17854,30102
18641,30102
18641,30771
17854,30771
" /> 
<polyline style="fill-rule:evenodd;"
points="16279,32055
16279,31385
17066,31385
17066,32055
16279,32055
" /> 
<polyline style="fill-rule:evenodd;"
points="17854,32055
17854,31385
18641,31385
18641,32055
17854,32055
" /> 
<polyline style="fill-rule:evenodd;"
points="16279,33338
16279,32669
17066,32669
17066,33338
16279,33338
" /> 
<polyline style="fill-rule:evenodd;"
points="17854,33338
17854,32669
18641,32669
18641,33338
17854,33338
" /> 
</g>
<g style="fill:#000000; fill-opacity:1.0; 
stroke:#000000; stroke-width:393.701; stroke-opacity:1; 
stroke-linecap:round; stroke-linejoin:round;">
</g>
<g style="fill:#000000; fill-opacity:0.0; 
stroke:#000000; stroke-width:393.701; stroke-opacity:1; 
stroke-linecap:round; stroke-linejoin:round;">
<path d="M17976 11759
L17917 11818
" />
</g>
<g style="fill:#000000; fill-opacity:0.0; 
stroke:#000000; stroke-width:295.276; stroke-opacity:1; 
stroke-linecap:round; stroke-linejoin:round;">
<path d="M23181 9440
L21834 8094
" />
<path d="M21834 8094
L15559 8094
" />
<path d="M23181 34248
L23181 9440
" />
<path d="M14870 9322
L14870 8783
" />
<path d="M14870 8783
L15559 8094
" />
<path d="M22377 15011
L20905 13539
" />
<path d="M20905 13539
L17307 13539
" />
<path d="M22377 34248
L22377 15011
" />
<path d="M16917 11818
L16917 13149
" />
<path d="M16917 13149
L17307 13539
" />
<path d="M16673 29153
L14641 29153
" />
<path d="M14641 29153
L14192 28704
" />
<path d="M14192 28704
L14192 27566
" />
<path d="M16673 30437
L12055 30437
" />
<path d="M11732 30114
L12055 30437
" />
<path d="M11732 29653
L11732 30114
" />
<path d="M16673 31720
L16314 31362
" />
<path d="M16314 31362
L10645 31362
" />
<path d="M10645 31362
L9685 30401
" />
<path d="M9685 30401
L9685 27157
" />
<path d="M10200 33003
L8629 31433
" />
<path d="M8629 31433
L8629 12452
" />
<path d="M16673 33003
L10200 33003
" />
<path d="M8629 12452
L9673 11409
" />
<path d="M9673 11409
L12405 11409
" />
<path d="M17377 23519
L14452 20594
" />
<path d="M14452 20594
L14452 13905
" />
<path d="M17377 26374
L17377 23519
" />
</g>
<g style="fill:#000000; fill-opacity:0.0; 
stroke:#000000; stroke-width:492.126; stroke-opacity:1; 
stroke-linecap:round; stroke-linejoin:round;">
<path d="M14437 13905
L14452 13905
" />
</g>
<g style="fill:#000000; fill-opacity:0.0; 
stroke:#000000; stroke-width:295.276; stroke-opacity:1; 
stroke-linecap:round; stroke-linejoin:round;">
<path d="M15787 23244
L12700 23244
" />
<path d="M16377 26374
L16377 23834
" />
<path d="M16377 23834
L15787 23244
" />
<path d="M12700 23244
L12145 23799
" />
<path d="M12145 23799
L12145 25070
" />
</g>
<g style="fill:#000000; fill-opacity:0.0; 
stroke:#000000; stroke-width:492.126; stroke-opacity:1; 
stroke-linecap:round; stroke-linejoin:round;">
<path d="M16377 26374
L16377 26334
" />
<path d="M23377 36925
L23181 36728
" />
<path d="M23181 36728
L23181 35311
" />
<path d="M22377 36925
L22377 35311
" />
<path d="M21377 36925
L21377 35311
" />
<path d="M20377 36925
L20377 35311
" />
<path d="M19377 36925
L19377 35311
" />
<path d="M18377 36925
L18377 35314
" />
<path d="M18377 35314
L18381 35311
" />
</g>
<g style="fill:#000000; fill-opacity:0.0; 
stroke:#000000; stroke-width:393.701; stroke-opacity:1; 
stroke-linecap:round; stroke-linejoin:round;">
<path d="M17377 36925
L17492 36811
" />
</g>
<g style="fill:#000000; fill-opacity:0.0; 
stroke:#000000; stroke-width:295.276; stroke-opacity:1; 
stroke-linecap:round; stroke-linejoin:round;">
<path d="M17492 36811
L17492 27551
" />
<path d="M17492 27551
L17377 27437
" />
<path d="M17377 27437
L16377 27437
" />
<path d="M21377 29874
L20657 29153
" />
<path d="M20657 29153
L18248 29153
" />
<path d="M21377 34248
L21377 29874
" />
<path d="M20377 31118
L19696 30437
" />
<path d="M19696 30437
L18248 30437
" />
<path d="M20377 34248
L20377 31118
" />
<path d="M19377 32114
L18984 31720
" />
<path d="M18984 31720
L18248 31720
" />
<path d="M19377 34248
L19377 32114
" />
<path d="M18381 34248
L18381 33137
" />
</g>
<g style="fill:#000000; fill-opacity:0.0; 
stroke:#000000; stroke-width:393.701; stroke-opacity:1; 
stroke-linecap:round; stroke-linejoin:round;">
<path d="M18381 33137
L18248 33003
" />
</g>
<g style="fill:#000000; fill-opacity:1.0; 
stroke:#000000; stroke-width:314.961; stroke-opacity:1; 
stroke-linecap:round; stroke-linejoin:round;">
<polyline style="fill-rule:evenodd;"
points="24996,1613
24996,1928
25116,2218
25339,2441
25629,2562
25943,2562
26197,2457
26197,36519
25945,36414
25630,36414
25340,36534
25117,36756
24996,37046
24996,37361
25101,37614
24042,37614
24042,35940
24017,35808
23939,35686
23819,35605
23801,35601
23801,35015
23776,34883
23709,34778
23772,34685
23801,34543
23801,33952
23776,33820
23698,33698
23686,33690
23686,9440
23647,9247
23538,9083
22191,7737
22027,7627
21834,7589
15559,7589
15365,7627
15201,7737
14512,8426
14403,8590
14396,8626
14383,8628
14261,8707
14179,8826
14151,8968
14151,9677
14176,9809
14254,9931
14373,10012
14515,10041
15224,10041
15356,10016
15478,9938
15560,9818
15588,9677
15588,8968
15563,8836
15551,8816
15768,8599
21625,8599
22675,9650
22675,14595
21262,13182
21213,13149
21098,13072
20905,13034
17516,13034
17422,12940
17422,12501
17525,12434
17607,12315
17636,12173
17636,11464
17611,11332
17532,11210
17413,11128
17271,11100
16562,11100
16430,11125
16308,11203
16227,11322
16198,11464
16198,12173
16223,12305
16301,12427
16412,12502
16412,13149
16450,13342
16514,13438
16560,13506
16949,13896
17113,14006
17307,14044
20696,14044
21872,15221
21872,29822
21844,29680
21735,29516
21014,28796
20996,28784
20850,28686
20657,28648
18956,28648
18902,28564
18783,28483
18641,28454
17997,28454
17997,27737
17998,27732
17998,27141
17973,27009
17905,26904
17969,26811
17998,26669
17998,26078
17973,25946
17895,25824
17883,25816
17883,23519
17844,23326
17735,23162
14957,20385
14957,14587
15061,14521
15142,14401
15171,14259
15171,13551
15146,13418
15068,13297
14948,13215
14807,13186
14098,13186
13965,13211
13844,13289
13762,13409
13733,13551
13733,14259
13758,14392
13837,14513
13947,14589
13947,20594
13986,20787
14095,20951
15906,22762
15787,22738
12700,22738
12507,22777
12343,22886
11788,23442
11679,23605
11640,23799
11640,24388
11537,24455
11455,24574
11426,24716
11426,25425
11451,25557
11530,25679
11649,25760
11791,25789
12500,25789
12632,25764
12754,25686
12835,25567
12864,25425
12864,24716
12839,24584
12761,24462
12650,24386
12650,24008
12910,23749
15578,23749
15872,24043
15872,25814
15867,25817
15786,25936
15757,26078
15757,26669
15782,26801
15849,26906
15786,26999
15757,27141
15757,27732
15782,27864
15860,27986
15945,28044
15945,28648
14850,28648
14698,28495
14698,28249
14801,28182
14883,28063
14911,27921
14911,27212
14886,27080
14808,26958
14689,26876
14547,26848
13838,26848
13706,26873
13584,26951
13502,27070
13474,27212
13474,27921
13499,28053
13577,28175
13687,28250
13687,28704
13726,28898
13769,28963
13835,29061
14284,29510
14370,29567
14370,29931
12451,29931
12451,29299
12426,29166
12347,29045
12228,28963
12086,28934
11377,28934
11245,28959
11123,29037
11042,29157
11013,29299
11013,30007
11038,30140
11116,30262
11236,30343
11298,30356
11375,30471
11697,30794
11792,30857
10854,30857
10190,30192
10190,27839
10293,27773
10375,27653
10403,27511
10403,26803
10378,26670
10300,26549
10181,26467
10039,26438
9330,26438
9198,26463
9135,26504
9135,12661
9882,11914
11723,11914
11789,12017
11909,12099
12051,12128
12759,12128
12892,12103
13013,12025
13095,11905
13124,11763
13124,11055
13099,10922
13021,10800
12901,10719
12759,10690
12051,10690
11918,10715
11797,10793
11721,10904
9673,10904
9479,10942
9316,11052
8272,12095
8163,12259
8124,12452
8124,31433
8163,31626
8177,31647
8272,31790
9843,33361
10007,33470
10200,33509
15964,33509
16018,33592
16137,33674
16279,33703
16987,33703
16987,35593
16945,35601
16823,35679
16742,35799
16713,35940
16713,37614
2851,37614
2955,37362
2956,37048
2835,36757
2613,36534
2323,36414
2008,36414
1755,36518
1755,2536
2007,2640
2321,2641
2612,2520
2835,2298
2955,2008
2956,1693
2835,1403
2794,1361
25101,1361
24996,1613
" /> 
</g>
<g style="fill:#FFFFFF; fill-opacity:1.0; 
stroke:#FFFFFF; stroke-width:314.961; stroke-opacity:1; 
stroke-linecap:round; stroke-linejoin:round;">
</g>
<g style="fill:#FFFFFF; fill-opacity:1.0; 
stroke:#FFFFFF; stroke-width:0; stroke-opacity:1; 
stroke-linecap:round; stroke-linejoin:round;">
<circle cx="25787.4" cy="37204.7" r="433.071" /> 
</g>
<g style="fill:#FFFFFF; fill-opacity:1.0; 
stroke:#FFFFFF; stroke-width:39.3701; stroke-opacity:1; 
stroke-linecap:round; stroke-linejoin:round;">
</g>
<g style="fill:#FFFFFF; fill-opacity:1.0; 
stroke:#FFFFFF; stroke-width:0; stroke-opacity:1; 
stroke-linecap:round; stroke-linejoin:round;">
<circle cx="2165.35" cy="37204.7" r="433.071" /> 
</g>
<g style="fill:#FFFFFF; fill-opacity:1.0; 
stroke:#FFFFFF; stroke-width:39.3701; stroke-opacity:1; 
stroke-linecap:round; stroke-linejoin:round;">
</g>
<g style="fill:#FFFFFF; fill-opacity:1.0; 
stroke:#FFFFFF; stroke-width:0; stroke-opacity:1; 
stroke-linecap:round; stroke-linejoin:round;">
<circle cx="25787.4" cy="1771.65" r="433.071" /> 
</g>
<g style="fill:#FFFFFF; fill-opacity:1.0; 
stroke:#FFFFFF; stroke-width:39.3701; stroke-opacity:1; 
stroke-linecap:round; stroke-linejoin:round;">
</g>
<g style="fill:#FFFFFF; fill-opacity:1.0; 
stroke:#FFFFFF; stroke-width:0; stroke-opacity:1; 
stroke-linecap:round; stroke-linejoin:round;">
<circle cx="14870.1" cy="9322.83" r="177.165" /> 
</g>
<g style="fill:#FFFFFF; fill-opacity:1.0; 
stroke:#FFFFFF; stroke-width:39.3701; stroke-opacity:1; 
stroke-linecap:round; stroke-linejoin:round;">
</g>
<g style="fill:#FFFFFF; fill-opacity:1.0; 
stroke:#FFFFFF; stroke-width:0; stroke-opacity:1; 
stroke-linecap:round; stroke-linejoin:round;">
<circle cx="15870.1" cy="9322.83" r="177.165" /> 
</g>
<g style="fill:#FFFFFF; fill-opacity:1.0; 
stroke:#FFFFFF; stroke-width:39.3701; stroke-opacity:1; 
stroke-linecap:round; stroke-linejoin:round;">
</g>
<g style="fill:#FFFFFF; fill-opacity:1.0; 
stroke:#FFFFFF; stroke-width:0; stroke-opacity:1; 
stroke-linecap:round; stroke-linejoin:round;">
<circle cx="16917.3" cy="11818.9" r="177.165" /> 
</g>
<g style="fill:#FFFFFF; fill-opacity:1.0; 
stroke:#FFFFFF; stroke-width:39.3701; stroke-opacity:1; 
stroke-linecap:round; stroke-linejoin:round;">
</g>
<g style="fill:#FFFFFF; fill-opacity:1.0; 
stroke:#FFFFFF; stroke-width:0; stroke-opacity:1; 
stroke-linecap:round; stroke-linejoin:round;">
<circle cx="17917.3" cy="11818.9" r="177.165" /> 
</g>
<g style="fill:#FFFFFF; fill-opacity:1.0; 
stroke:#FFFFFF; stroke-width:39.3701; stroke-opacity:1; 
stroke-linecap:round; stroke-linejoin:round;">
</g>
<g style="fill:#FFFFFF; fill-opacity:1.0; 
stroke:#FFFFFF; stroke-width:0; stroke-opacity:1; 
stroke-linecap:round; stroke-linejoin:round;">
<circle cx="14192.9" cy="27566.9" r="177.165" /> 
</g>
<g style="fill:#FFFFFF; fill-opacity:1.0; 
stroke:#FFFFFF; stroke-width:39.3701; stroke-opacity:1; 
stroke-linecap:round; stroke-linejoin:round;">
</g>
<g style="fill:#FFFFFF; fill-opacity:1.0; 
stroke:#FFFFFF; stroke-width:0; stroke-opacity:1; 
stroke-linecap:round; stroke-linejoin:round;">
<circle cx="15192.9" cy="27566.9" r="177.165" /> 
</g>
<g style="fill:#FFFFFF; fill-opacity:1.0; 
stroke:#FFFFFF; stroke-width:39.3701; stroke-opacity:1; 
stroke-linecap:round; stroke-linejoin:round;">
</g>
<g style="fill:#FFFFFF; fill-opacity:1.0; 
stroke:#FFFFFF; stroke-width:0; stroke-opacity:1; 
stroke-linecap:round; stroke-linejoin:round;">
<circle cx="11732.3" cy="29653.5" r="177.165" /> 
</g>
<g style="fill:#FFFFFF; fill-opacity:1.0; 
stroke:#FFFFFF; stroke-width:39.3701; stroke-opacity:1; 
stroke-linecap:round; stroke-linejoin:round;">
</g>
<g style="fill:#FFFFFF; fill-opacity:1.0; 
stroke:#FFFFFF; stroke-width:0; stroke-opacity:1; 
stroke-linecap:round; stroke-linejoin:round;">
<circle cx="12732.3" cy="29653.5" r="177.165" /> 
</g>
<g style="fill:#FFFFFF; fill-opacity:1.0; 
stroke:#FFFFFF; stroke-width:39.3701; stroke-opacity:1; 
stroke-linecap:round; stroke-linejoin:round;">
</g>
<g style="fill:#FFFFFF; fill-opacity:1.0; 
stroke:#FFFFFF; stroke-width:0; stroke-opacity:1; 
stroke-linecap:round; stroke-linejoin:round;">
<circle cx="9685.04" cy="27157.5" r="177.165" /> 
</g>
<g style="fill:#FFFFFF; fill-opacity:1.0; 
stroke:#FFFFFF; stroke-width:39.3701; stroke-opacity:1; 
stroke-linecap:round; stroke-linejoin:round;">
</g>
<g style="fill:#FFFFFF; fill-opacity:1.0; 
stroke:#FFFFFF; stroke-width:0; stroke-opacity:1; 
stroke-linecap:round; stroke-linejoin:round;">
<circle cx="10685" cy="27157.5" r="177.165" /> 
</g>
<g style="fill:#FFFFFF; fill-opacity:1.0; 
stroke:#FFFFFF; stroke-width:39.3701; stroke-opacity:1; 
stroke-linecap:round; stroke-linejoin:round;">
</g>
<g style="fill:#FFFFFF; fill-opacity:1.0; 
stroke:#FFFFFF; stroke-width:0; stroke-opacity:1; 
stroke-linecap:round; stroke-linejoin:round;">
<circle cx="12405.5" cy="11409.4" r="177.165" /> 
</g>
<g style="fill:#FFFFFF; fill-opacity:1.0; 
stroke:#FFFFFF; stroke-width:39.3701; stroke-opacity:1; 
stroke-linecap:round; stroke-linejoin:round;">
</g>
<g style="fill:#FFFFFF; fill-opacity:1.0; 
stroke:#FFFFFF; stroke-width:0; stroke-opacity:1; 
stroke-linecap:round; stroke-linejoin:round;">
<circle cx="13405.5" cy="11409.4" r="177.165" /> 
</g>
<g style="fill:#FFFFFF; fill-opacity:1.0; 
stroke:#FFFFFF; stroke-width:39.3701; stroke-opacity:1; 
stroke-linecap:round; stroke-linejoin:round;">
</g>
<g style="fill:#FFFFFF; fill-opacity:1.0; 
stroke:#FFFFFF; stroke-width:0; stroke-opacity:1; 
stroke-linecap:round; stroke-linejoin:round;">
<circle cx="14452.8" cy="13905.5" r="177.165" /> 
</g>
<g style="fill:#FFFFFF; fill-opacity:1.0; 
stroke:#FFFFFF; stroke-width:39.3701; stroke-opacity:1; 
stroke-linecap:round; stroke-linejoin:round;">
</g>
<g style="fill:#FFFFFF; fill-opacity:1.0; 
stroke:#FFFFFF; stroke-width:0; stroke-opacity:1; 
stroke-linecap:round; stroke-linejoin:round;">
<circle cx="15452.8" cy="13905.5" r="177.165" /> 
</g>
<g style="fill:#FFFFFF; fill-opacity:1.0; 
stroke:#FFFFFF; stroke-width:39.3701; stroke-opacity:1; 
stroke-linecap:round; stroke-linejoin:round;">
</g>
<g style="fill:#FFFFFF; fill-opacity:1.0; 
stroke:#FFFFFF; stroke-width:0; stroke-opacity:1; 
stroke-linecap:round; stroke-linejoin:round;">
<circle cx="12145.7" cy="25070.9" r="177.165" /> 
</g>
<g style="fill:#FFFFFF; fill-opacity:1.0; 
stroke:#FFFFFF; stroke-width:39.3701; stroke-opacity:1; 
stroke-linecap:round; stroke-linejoin:round;">
</g>
<g style="fill:#FFFFFF; fill-opacity:1.0; 
stroke:#FFFFFF; stroke-width:0; stroke-opacity:1; 
stroke-linecap:round; stroke-linejoin:round;">
<circle cx="13145.7" cy="25070.9" r="177.165" /> 
</g>
<g style="fill:#FFFFFF; fill-opacity:1.0; 
stroke:#FFFFFF; stroke-width:39.3701; stroke-opacity:1; 
stroke-linecap:round; stroke-linejoin:round;">
</g>
<g style="fill:#FFFFFF; fill-opacity:1.0; 
stroke:#FFFFFF; stroke-width:0; stroke-opacity:1; 
stroke-linecap:round; stroke-linejoin:round;">
<circle cx="2165.35" cy="1850.39" r="433.071" /> 
</g>
<g style="fill:#FFFFFF; fill-opacity:1.0; 
stroke:#FFFFFF; stroke-width:39.3701; stroke-opacity:1; 
stroke-linecap:round; stroke-linejoin:round;">
</g>
<g style="fill:#000000; fill-opacity:1.0; 
stroke:#000000; stroke-width:39.3701; stroke-opacity:1; 
stroke-linecap:round; stroke-linejoin:round;">
</g>
<g style="fill:#000000; fill-opacity:0.0; 
stroke:#000000; stroke-width:39.3701; stroke-opacity:1; 
stroke-linecap:round; stroke-linejoin:round;">
<path d="M26574 37992
L26574 984
" />
<path d="M1377 37992
L26574 37992
" />
<path d="M1377 984
L1377 37992
" />
<path d="M26574 984
L1377 984
" />
</g> 
</svg>
